HIERARCHY
ROOT Spine
{
    OFFSET 0.0 0.0 -0.0
    CHANNELS 6 Xposition Yposition Zposition Zrotation Xrotation Yrotation
    JOINT ShoulderCenter
    {
        OFFSET 0.0 32.58971405029297 0.0
        CHANNELS 3 Zrotation Xrotation Yrotation
        JOINT LeftShoulder
        {
            OFFSET 20.107494354248047 0.0 0.0
            CHANNELS 3 Zrotation Xrotation Yrotation
            JOINT LeftElbow
            {
                OFFSET 30.087493896484375 0.0 0.0
                CHANNELS 3 Zrotation Xrotation Yrotation
                JOINT LeftHand
                {
                    OFFSET 33.49507141113281 0.0 0.0
                    CHANNELS 3 Zrotation Xrotation Yrotation
                    End Site
                    {
                        OFFSET 13.398027420043945 0.0 0.0
                    }
                }
            }
        }
        JOINT RightShoulder
        {
            OFFSET -20.107494354248047 0.0 0.0
            CHANNELS 3 Zrotation Xrotation Yrotation
            JOINT RightElbow
            {
                OFFSET -30.087493896484375 0.0 0.0
                CHANNELS 3 Zrotation Xrotation Yrotation
                JOINT RightHand
                {
                    OFFSET -33.49507141113281 0.0 0.0
                    CHANNELS 3 Zrotation Xrotation Yrotation
                    End Site
                    {
                        OFFSET -13.398027420043945 0.0 0.0
                    }
                }
            }
        }
        End Site
        {
            OFFSET 0.0 13.035886764526367 0.0
        }
    }
    JOINT LeftHip
    {
        OFFSET 16.707097066464144 -16.707097066464144 0.0
        CHANNELS 3 Zrotation Xrotation Yrotation
        JOINT LeftKnee
        {
            OFFSET 0.0 -42.941261291503906 0.0
            CHANNELS 3 Zrotation Xrotation Yrotation
            JOINT LeftFoot
            {
                OFFSET 0.0 -45.53948211669922 0.0
                CHANNELS 3 Zrotation Xrotation Yrotation
                End Site
                {
                    OFFSET 0.0 0.0 18.215791702270508
                }
            }
        }
    }
    JOINT RightHip
    {
        OFFSET -16.707097066464144 -16.707097066464144 0.0
        CHANNELS 3 Zrotation Xrotation Yrotation
        JOINT RightKnee
        {
            OFFSET 0.0 -42.941261291503906 0.0
            CHANNELS 3 Zrotation Xrotation Yrotation
            JOINT RightFoot
            {
                OFFSET 0.0 -45.53948211669922 0.0
                CHANNELS 3 Zrotation Xrotation Yrotation
                End Site
                {
                    OFFSET 0.0 0.0 18.215791702270508
                }
            }
        }
    }
}
MOTION
Frames: 14
Frame Time: 0.03333333333333333
-4.199999809265137 10.0 -11.90000057220459 -1.4057488946500662 2.7001034457729037e-09 9.193740461436695 -2.8486939133554596e-08 2.9734085660571307e-09 -2.603666862092624 115.8764271663137 1.9040418406261195 -159.50365086342657 4.323096729562704e-06 -2.5160836102456594e-06 57.91093108012532 -1.7655625192200634e-31 3.1805546814635164e-15 6.361109362927033e-15 -117.8950489282503 23.507365239615584 -164.5160717230998 -1.7658175029977333e-07 -2.666857119957516e-06 -81.41556051474038 -6.3611093629270335e-15 0.0 0.0 1.8463883912031778 -11.025190690710843 4.46628060409266 -0.20007834564647503 19.962235986092328 -44.2773406930963 -1.5902773407317584e-15 1.3914926731402886e-15 2.3854160110976376e-15 0.15614561875479752 -15.995715305186499 -15.497062795432274 -8.015662422350806 28.64981323653751 60.72691824954143 0.0 0.0 -8.94531004161614e-16
-5.400000095367432 9.899999618530273 -11.699999809265137 -1.9325600189590728 -1.3252297175010977e-09 6.877674596925484 2.0233324608181373e-07 -2.5809738750009274e-08 2.4996793543771725 117.13771070569706 7.874593625879997 -163.55212411072833 -8.563198691074756e-07 9.415862294945054e-07 58.25612731787777 1.2722218725854067e-14 -7.062250076880254e-31 -6.3611093629270335e-15 -116.21457387161215 20.266096401755103 -168.77406987899818 1.0034388173834015e-06 -7.312043817434101e-07 -80.80443704122956 0.0 0.0 0.0 2.989738569464681 -13.101138147004676 12.33130646434973 4.729566381632545 23.95927096965564 -58.799270830074896 7.951386703658791e-16 -5.172546443027529e-33 -7.454425034680117e-16 1.8624521226295205 -14.036841740165821 -10.636378523492532 -4.128328635679434 24.53985759813345 48.708197032804804 0.0 0.0 5.565970692561156e-15
-6.5 10.100000381469727 -11.59999942779541 -2.45904419407093 0.35117945162261915 3.911712724811925 -2.5733024482266977e-07 -1.3460189029615857e-08 8.017872740661367 118.69120436428727 13.672902933854896 -167.58135044915454 -2.7380586993591618e-06 1.9268880962136164e-06 58.57495107084404 0.0 6.361109362927035e-15 0.0 -115.23827112087359 16.822632903254288 -173.71172414331014 -1.1189819634837777e-06 -3.406214802350627e-06 -79.44185065691029 0.0 0.0 1.2722218725854067e-14 4.196947359630909 -15.412865059834925 20.269189480747183 10.938788707273027 27.0979231791109 -74.095736294498 -7.95138670365879e-16 -8.965747167914385e-33 1.2921003393445534e-15 3.665351939358792 -14.053015257770888 -9.599317055102066 -3.808613744536096 22.685610678023153 43.76515987308959 -7.951386703658792e-16 1.987846675914698e-16 -6.957463365701443e-16
-7.699999809265137 10.59999942779541 -11.800000190734863 -3.69704846805028 1.2313048130915392 1.9924183766168113 -7.170609110999545e-08 -5.825656722638494e-08 12.498845360495007 121.07479490248376 18.816814764088985 -171.26665134365524 -1.446998014069861e-06 1.8805627956725938e-06 59.04288854312153 3.1805546814635156e-15 -7.95138670365879e-15 -3.1805546814635156e-15 -113.4153195537149 14.299566651084191 -179.22484597679446 -1.2036246097308543e-06 -2.3710235642194838e-06 -78.51254384213674 -9.541664044390553e-15 -3.1805546814635168e-15 -6.361109362927035e-15 6.1742081721564235 -19.730058058765906 29.584279268544414 19.654543261149747 29.848391491387925 -90.1347056015666 2.275920434932113e-32 3.9756933518293955e-16 -6.559894030518502e-15 5.517871183844507 -14.5872962305764 -8.850434205230952 -3.3192800558157196 21.294048109415925 41.56218024854648 5.517382872562698e-33 7.951386703658792e-16 -7.951386703658792e-16
-8.90000057220459 11.100000381469727 -11.800000190734863 -4.573922002373081 1.75678197001367 2.6972688812840437 -2.9523517315697913e-08 -8.254193946012454e-08 15.14447859879865 122.43572664368904 23.315585665651756 -173.8910543516618 3.3438109103251447e-06 -1.2548475332134425e-07 58.91008701549411 -3.1805546814635168e-15 6.3611093629270335e-15 -3.1805546814635168e-15 -112.65459520922971 12.0287304304669 176.7282187555021 -1.051217818656464e-06 -1.483236703243176e-06 -78.3735318067302 0.0 3.1805546814635168e-15 0.0 7.83862664158645 -26.333417028636525 42.71457881102398 33.551492122302385 30.366746288683174 -109.83665384500449 0.0 0.0 1.5902773407317584e-15 6.5407632833048375 -13.623112392664689 -6.152369434908783 -1.2576676518499819 18.50427076808669 35.76643244566274 5.431173765178906e-33 -1.9878466759146985e-16 3.13085851456565e-15
-9.800000190734863 11.699999809265137 -11.800000190734863 -5.114696852611786 2.28853334625303 4.638423850584477 -3.4039087509271844e-07 -1.7231504666739116e-07 17.724012672350785 123.43645151631922 25.68904976621509 -175.4281132434575 2.2929085099072684e-06 -3.318352632033442e-06 58.51541427920584 3.1805546814635176e-15 8.827812596100317e-32 3.1805546814635176e-15 -113.25510788577044 10.702277126874046 173.53213699758845 2.7714403598719317e-06 -3.207118182569515e-07 -79.01244625876134 0.0 0.0 0.0 7.9820331818242085 -34.8508548354309 54.273373217838 49.14795885624704 26.335075266053273 -128.42983791562023 7.58640144977371e-33 -3.975693351829397e-16 2.186631343506168e-15 7.514095236449906 -12.703790326753632 -3.8835633886279957 -0.6113002793904755 15.034086372937987 28.728485501390665 0.0 0.0 2.2363275104040355e-16
-10.699999809265137 12.300000190734863 -11.90000057220459 -5.815625809152635 2.63706609406171 5.703939964806829 1.0246059369767662e-07 -1.6397672889770162e-07 21.79093700898122 123.31235921825193 28.226479083811757 -176.12059129531687 1.7389248897697155e-06 -4.9906193512138594e-06 58.58934073913147 -1.5902773407317584e-15 0.0 0.0 -114.96315441956918 9.24037290650565 169.5511705767289 3.796542368659624e-06 3.2727938650549947e-07 -78.60780826550321 -6.3611093629270335e-15 6.3611093629270335e-15 3.531125038440127e-31 7.847711529906433 -42.562079048302714 58.17042714545497 58.73669724459255 24.178579706816766 -135.00957859207477 -1.5902773407317582e-15 -9.655420026984722e-32 6.957463365701441e-15 8.927722488219976 -11.478245492445046 -0.30860310352476134 -0.8247395901618421 11.430937974097548 22.957220491957248 5.926876132635711e-34 9.939233379573489e-17 -6.833222948456773e-16
-11.300000190734863 13.199999809265137 -11.90000057220459 -6.359660856496129 2.9942823294743848 7.131579825538581 1.70770251872412e-07 -3.7169832559158815e-08 24.677014763119175 123.91562076806312 29.880036003199475 -178.78163983678652 4.5224170333001135e-06 7.505223683209198e-07 60.0386736381575 -1.5902773407317584e-15 -6.3611093629270335e-15 -8.827812596100317e-32 -116.1147696585562 7.7843742876025095 165.79229236253502 -1.1908055145498504e-06 1.8470700153211693e-06 -79.0325846805545 3.1805546814635168e-15 1.7655625192200634e-31 6.3611093629270335e-15 5.461332826476078 -50.355027253683694 58.299753580313016 66.10541591985553 21.768906726090755 -137.67075563263236 0.0 0.0 -1.5902773407317584e-15 10.040287053583185 -10.208425022597899 3.005070663019649 -1.4541091917233453 7.846966884913371 16.681774490028587 0.0 0.0 -4.550305281585989e-15
-11.90000057220459 13.699999809265137 -11.800000190734863 -7.0595107983606855 2.989989170510078 9.539879056186352 -2.9399950638986853e-07 -1.3040834131440138e-07 26.4504587357381 125.32318148135596 31.45944440994106 178.08118017807655 -4.667827718253804e-06 7.986976313178728e-07 60.94354228852374 1.4345195468663017e-31 6.3611093629270335e-15 -2.5842006786891076e-15 -117.73028895919876 6.20609890530283 161.78155803376623 -2.437128332650688e-06 3.601417948202726e-07 -78.77369879555282 0.0 6.3611093629270335e-15 0.0 -0.6510554063201432 -58.101504860909095 52.67353785995242 72.26247890263176 20.66122829538011 -134.4087012713077 -1.9655676483504612e-31 -2.9817700138720468e-15 -7.553817368475852e-15 11.160215503859565 -9.5060365712128 3.583262531873286 -2.583966870883903 5.816346099333866 13.261994140694535 1.987846675914698e-16 -4.969616689786746e-17 -4.228444950661519e-15
-12.5 14.200000762939453 -11.699999809265137 -8.130102253799409 3.3430284976519884 10.762560981975248 6.457787034839061e-07 1.244397276369734e-07 29.778379684608048 126.4430350939057 32.8854914724065 175.81391125131435 -3.1113227356217334e-06 2.9823462172000646e-06 61.51182010295205 3.975693351829396e-16 6.2617170291312985e-15 -2.1724695060715624e-32 -119.8764438855838 5.239001198177424 157.21999343950685 -7.653522927454906e-06 4.305400092135481e-06 -78.33508236311957 0.0 0.0 0.0 -8.86676337305262 -65.7766187253286 44.526550719707195 77.36602736353173 19.81855459384285 -129.22970851860413 0.0 0.0 1.4784609652115567e-15 12.415357568253212 -9.269627878152047 4.621052446433579 -3.115300349642896 4.074187989631378 10.02177926451144 0.0 0.0 -3.1060104311167157e-16
-12.899999618530273 14.59999942779541 -11.699999809265137 -9.000034495849379 4.035483250742832 11.646398436158758 -1.9900083722316606e-07 7.182092441034086e-08 33.24993052976936 127.45063543203108 34.14370021013317 173.1975562562468 8.985953406626746e-07 1.3642520840204337e-06 61.68390784128483 -7.95138670365879e-16 -1.1034765745125397e-32 1.590277340731758e-15 -122.68126619319885 4.659400648517703 152.41698658295607 -3.1900220802099693e-06 6.826316317664794e-07 -77.44883306567826 -3.1805546814635168e-15 0.0 0.0 -22.65484883730797 -72.4258288792781 30.96129618773588 80.82942103096809 19.186430320544435 -121.4687388245786 -7.951386703658791e-16 9.93923337957349e-17 -2.286023677301902e-15 13.349768238980083 -9.26420901577358 6.453914120930739 -3.5855996011466345 2.097265625219621 5.335468993926055 3.6369467177537316e-35 -4.47265502080807e-16 9.318031293350145e-18
-13.300000190734863 14.90000057220459 -11.5 -10.099882933968397 4.222929541168 12.215829204825955 1.062240453979373e-06 5.045603694168692e-07 36.33283903101664 129.31104682455845 36.323864604247056 169.81416771296665 -2.2190798835584074e-06 2.0185902533812446e-06 61.410537089093054 1.5902773407317582e-15 0.0 0.0 -125.11627684035867 3.5975135968826684 147.34633887360354 2.3077671982648756e-06 1.023802572125189e-06 -76.26414977208755 0.0 -6.361109362927035e-15 0.0 -46.43662456100234 -76.57313913371529 6.9238329997063 83.56171037074907 18.30908180145349 -109.60832131573802 -7.951386703658792e-16 1.5902773407317584e-15 -7.951386703658792e-16 14.507549096916641 -8.735716603280943 7.710725640241964 -4.170086002961119 0.23274217442233597 0.6281296046254927 -3.975693351829395e-16 1.5215907453239315e-32 -4.385686728736802e-15
-13.699999809265137 15.09999942779541 -11.399999618530273 -11.725110634979037 4.75229890573591 13.537625222962816 7.142551953663065e-07 -8.183118058368853e-07 38.25639588872577 131.0962778775862 38.91642344311162 165.84734973619135 3.732962633618136e-06 -1.374966608564804e-06 62.239049570136885 -1.5902773407317582e-15 -3.975693351829395e-16 -3.1805546814635164e-15 -129.04603024570426 2.969918247992193 142.06243220187577 1.2228184783989537e-06 2.862365063657938e-06 -74.99339932341063 0.0 0.0 0.0 -78.00337977627878 -76.36247276301424 -25.8524532682697 85.08189505511393 17.69602749564522 -92.37806667463742 4.224246261805816e-33 -3.9756933518293955e-16 1.2175560889977523e-15 16.266775268553076 -9.042890635440918 8.173336032441894 -4.739620511232025 -1.2514223244930602 -3.445219078130551 -1.9878466759146975e-16 -5.420397626755932e-33 3.124646493703415e-15
-14.0 15.299999237060547 -11.200000762939453 -13.39249813273557 5.293242613051327 14.716480536163342 1.4227172237744624e-06 -9.698437575241483e-07 39.88921675962085 133.65751709021364 41.81547401969268 161.22273398060827 1.6810393770051952e-06 -9.43551196095666e-07 62.59481434716326 -1.590277340731758e-15 -3.9756933518293945e-16 -3.180554681463516e-15 -133.4053691782649 2.3321601513057884 136.836136809945 -2.8405032546508326e-07 1.8661198597270257e-06 -73.69811379992342 -1.5902773407317584e-15 6.3611093629270335e-15 1.5902773407317584e-15 -98.93467741212939 -73.08922251351973 -47.81846443833824 85.11331894415981 16.29589468648415 -70.26124729881532 -1.5902773407317584e-15 -7.58640144977371e-33 5.466578358765419e-16 17.766400922075054 -9.589193068178783 7.361258994825386 -4.979928453503867 -2.65974141137069 -7.474958319461003 -3.975693351829396e-16 2.484808344893372e-17 1.5778532990072915e-15
